<?xml version="1.0" encoding="UTF-8" standalone="no"?>
<svg
   version="1.1"
   width="252.28149"
   height="304.37668"
   viewBox="0 0 383.95885 463.24491"
   id="svg52"
   sodipodi:docname="H64_Logo.svg"
   inkscape:version="1.1.2 (0a00cf5339, 2022-02-04)"
   xmlns:inkscape="http://www.inkscape.org/namespaces/inkscape"
   xmlns:sodipodi="http://sodipodi.sourceforge.net/DTD/sodipodi-0.dtd"
   xmlns="http://www.w3.org/2000/svg"
   xmlns:svg="http://www.w3.org/2000/svg">
  <defs
     id="defs56" />
  <sodipodi:namedview
     id="namedview54"
     pagecolor="#ffffff"
     bordercolor="#666666"
     borderopacity="1.0"
     inkscape:pageshadow="2"
     inkscape:pageopacity="0.0"
     inkscape:pagecheckerboard="0"
     showgrid="false"
     showguides="true"
     inkscape:guide-bbox="true"
     inkscape:zoom="1.4911995"
     inkscape:cx="-24.141639"
     inkscape:cy="159.60306"
     inkscape:window-width="1920"
     inkscape:window-height="1031"
     inkscape:window-x="0"
     inkscape:window-y="25"
     inkscape:window-maximized="1"
     inkscape:current-layer="g50"
     fit-margin-top="0"
     fit-margin-left="0"
     fit-margin-right="0"
     fit-margin-bottom="0">
    <sodipodi:guide
       position="-200.68928,220.19765"
       orientation="1,0"
       id="guide1234" />
    <sodipodi:guide
       position="-122.68674,187.45931"
       orientation="1,0"
       id="guide1768" />
    <sodipodi:guide
       position="-153.63132,59.608664"
       orientation="1,0"
       id="guide2226" />
    <sodipodi:guide
       position="-10.089045,-0.088580759"
       orientation="1,0"
       id="guide4545" />
    <sodipodi:guide
       position="-68.389375,42.507894"
       orientation="0,-1"
       id="guide5243" />
    <sodipodi:guide
       position="-66.340935,51.245544"
       orientation="1,0"
       id="guide5325" />
    <sodipodi:guide
       position="-66.340935,93.920921"
       orientation="0,-1"
       id="guide6072" />
    <sodipodi:guide
       position="13.071855,115.80739"
       orientation="0,-1"
       id="guide6074" />
    <sodipodi:guide
       position="68.005065,245.07825"
       orientation="1,0"
       id="guide6715" />
    <sodipodi:guide
       position="14.803925,65.342081"
       orientation="1,0"
       id="guide7470" />
    <sodipodi:guide
       position="-134.39722,166.80711"
       orientation="0,-1"
       id="guide11612" />
    <sodipodi:guide
       position="-122.68674,175.10716"
       orientation="1,0"
       id="guide12557" />
    <sodipodi:guide
       position="-118.69783,292.56972"
       orientation="1,0"
       id="guide13717" />
    <sodipodi:guide
       position="-147.60871,240.27717"
       orientation="1,0"
       id="guide14630" />
    <sodipodi:guide
       position="-14.121855,288.39412"
       orientation="1,0"
       id="guide21803" />
    <sodipodi:guide
       position="-286.72836,352.06994"
       orientation="1,0"
       id="guide29876" />
    <sodipodi:guide
       position="-267.40187,358.63904"
       orientation="1,0"
       id="guide30106" />
    <sodipodi:guide
       position="-286.65694,330.2349"
       orientation="0,-1"
       id="guide30222" />
    <sodipodi:guide
       position="-283.87223,384.53462"
       orientation="0,-1"
       id="guide30262" />
    <sodipodi:guide
       position="-317.21478,365.06998"
       orientation="0,-1"
       id="guide30492" />
    <sodipodi:guide
       position="-279.58803,352.06994"
       orientation="0,-1"
       id="guide30570" />
    <sodipodi:guide
       position="-9.3598854,-16.185163"
       orientation="0,-1"
       id="guide32602" />
  </sodipodi:namedview>
  <g
     transform="matrix(2.4919039,0,0,2.4919039,-303.1035,39.848499)"
     id="g50">
    <path
       style="fill:#0222a9"
       d="m 206.58651,63.673748 12.69428,-4.121194 0.0318,-31.74374 -21,8.1 v 0 l 0.0127,24.432583 z"
       id="path2"
       sodipodi:nodetypes="ccccccc" />
    <path
       style="fill:#011da9"
       d="m 252.08363,87.750274 0.12894,-31.04146 21.3,-8.2 v 89.699996 l -21.3,8.67592 c 0.034,-12.91477 -0.0742,-25.50677 -0.12894,-38.42171 l -31.18448,15.7458 v 36.20389 l -22.58658,9.4961 V 77.508814 l 22.6,-8.6 -0.0134,33.214206 z"
       id="path4"
       sodipodi:nodetypes="ccccccccccccc" />
    <path
       style="fill:#0222a9"
       d="m 163.19152,138.9142 0.10418,-25.02359 -18.88435,-6.6491 0.001,39.9673 v 0 z"
       id="path6"
       sodipodi:nodetypes="cccccc" />
    <path
       style="fill:#0222a9"
       d="m 175.71374,81.853556 v -7.192043 l -10.00117,3.330806 z"
       id="path6-3"
       sodipodi:nodetypes="cccc" />
    <path
       style="fill:#069330"
       d="m 177.31449,57.33297 13.84279,5.724349 7.16801,-2.715922 -0.0127,-24.432583 -21,-8.2 z"
       id="path8"
       sodipodi:nodetypes="cccccc" />
    <path
       style="fill:#069330"
       d="m 230.88869,77.992319 c 5e-5,-11.012067 0.0144,-18.471443 0.0239,-29.483505 l 21.3,8.2 0.0257,31.04922 z"
       id="path10"
       sodipodi:nodetypes="ccccc" />
    <path
       style="fill:#069330"
       d="M 198.31257,169.90881 V 77.508814 l -22.6,-8.6 0.001,30.77118 -31.30239,-13.55612 c 0.0344,-9.794531 -0.034,-19.620537 0.001,-29.41506 l -21.4,-8.2 v 89.699996 l 21.4,9 -0.001,-39.9673 31.21454,15.42348 0.0878,37.74772 z"
       id="path12"
       sodipodi:nodetypes="ccccccccccccc" />
    <path
       style="fill:#0222a9;fill-opacity:1"
       d="m 144.41257,56.708814 21.3,-8.2 v 29.483505 l -21.30122,8.131555 z"
       id="path14"
       sodipodi:nodetypes="ccccc" />
    <path
       style="fill:#fe2015"
       d="m 230.88869,119.16476 v 19.48446 l 21.32388,8.23551 v 0 l 0.0257,-39.64322 z"
       id="path16"
       sodipodi:nodetypes="cccccc" />
    <path
       style="fill:#ffc001"
       d="m 175.72529,68.941397 22.6,-8.6 22.6,8.6 v 0 l -22.6,8.6 z"
       id="path18"
       sodipodi:nodetypes="cccccc" />
    <path
       style="fill:#ffc001"
       d="m 252.21257,40.308814 21.3,8.2 -21.3,8.2 -21.3,-8.2 v 0 z"
       id="path20" />
    <path
       style="fill:#ffc001"
       d="m 144.41257,40.308814 21.3,8.2 -21.3,8.2 -21.3,-8.2 v 0 z"
       id="path22" />
    <path
       style="fill:#fe2015;fill-opacity:1;stroke-width:2.61844"
       d="m 177.31449,57.33297 13.84279,5.724349 -15.43199,5.884078 -0.0115,5.720116 -10.00117,3.330806 -10e-6,-18.651156 v 2.443025 z"
       id="path22-3-5"
       sodipodi:nodetypes="cccccccc" />
    <path
       style="fill:#ffc001;stroke-width:2.61844"
       d="m 165.71257,77.992319 10.00117,3.861237 v 17.826438 l -31.30239,-13.55612 v 0 z"
       id="path22-3-7"
       sodipodi:nodetypes="cccccc" />
    <path
       style="fill:#ffc001;stroke-width:2.61844"
       d="m 230.88869,77.992319 21.34959,9.765715 -31.33913,14.364986 V 83.406911 Z"
       id="path22-3-6"
       sodipodi:nodetypes="ccccc" />
    <path
       style="fill:#ffc001"
       d="m 198.31257,19.608814 -21,8.1 21,8.2 21,-8.1 v 0 z"
       id="path24" />
    <path
       style="fill:#0124a6"
       d="m 135.93526,-9.391186 0.0271,7.820698 h -7.75571 v -7.8111522 l -6.57134,-0.00955 V 12.40881 h 6.6 l -0.0287,-8.7623922 h 7.75571 v 8.7623932 l 6.57295,-10e-7 V -9.3911902 Z"
       id="path34"
       sodipodi:nodetypes="ccccccccccccc" />
    <path
       style="fill:#0124a6"
       d="m 236.63522,-9.391186 v 12.5 h -0.1 l -4.4,-12.5 h -9.8 v 21.8 h 6.6 v -12.6 h 0.1 l 4.4,12.6 v 0 h 9.8 v -21.8 z"
       id="path38" />
    <path
       style="fill:#0124a6"
       d="m 211.03525,-3.591186 v 2.3 h 7.49998 v 5.6 h -7.49998 v 2.4 h 8.39998 v 5.7 h -16.39996 v -21.8 0 h 16.19996 v 5.8 z"
       id="path44" />
    <path
       style="fill:#0124a6"
       d="m 174.28931,6.429512 h 8.4 v 5.7 h -16.4 v -21.8000001 0 l 8,0.2888479 z"
       id="path44-9"
       sodipodi:nodetypes="cccccccc" />
    <path
       style="fill:#0124a6"
       d="m 192.03526,6.708815 h 8.4 v 5.7 h -16.4 v -21.7999989 0 l 8,0.2888477 z"
       id="path44-9-1"
       sodipodi:nodetypes="cccccccc" />
    <path
       style="fill:#0124a6"
       d="m 154.33405,-3.591185 v 2.3 h 7.5 v 5.6 h -7.5 v 2.4 h 8.4 v 5.7 h -16.4 v -21.7999997 0 h 16.2 v 5.7999997 z"
       id="path44-2" />
    <path
       style="fill:#ff2d1e"
       d="m 259.21784,-12.291186 c -0.4,0 -0.9,0 -1.5,0 -3.5,0.2 -4.8,1.6 -5.3,3.3 h 0.1 c 0.9,-0.8 1.9,-1.1 3.3,-1.1 2.7,0 5.2,2 5.2,5.7 0,3.6 -2.7,6.4 -6.4,6.4 -4.9,0 -7,-3.7 -7,-7.7 0,-3.2 1.1,-6 3,-7.7 1.8,-1.7 4.1,-2.5 6.9,-2.6 0.7,0 1.2,0 1.6,0 v 3.7 h -2.7e-4 z m -4.6,10.8 c 1.1,0 1.8,-1.1 1.8,-2.6 0,-1.2 -0.6,-2.6 -2.1,-2.6 -0.9,0 -1.6,0.6 -1.9,1.3 -0.1,0.2 -0.1,0.5 -0.1,1 0.1,1.4 0.8,2.9 2.3,2.9 z"
       id="path46" />
    <path
       style="fill:#ff2d1e"
       d="m 269.61784,1.708814 v -3.9 h -7.3 v -3.1 l 5.8,-10.4 h 5.8 v 10 h 1.8 v 3.6 h -1.8 v 3.9 h -4.4 v 0 z m 0,-7.5 v -3 c 0,-1.1 0.1,-2.3 0.1,-3.5 h -0.1 c -0.5,1.2 -1,2.3 -1.6,3.5 l -1.4,2.9 v 0.1 h 3 v -2.7e-4 z"
       id="path48" />
    <path
       style="fill:#fe2015;fill-opacity:1;stroke:none;stroke-width:0.610756px;stroke-linecap:butt;stroke-linejoin:miter;stroke-opacity:1"
       d="M 230.88869,77.99232 V 64.346514 l -11.6079,-4.79396 -12.69428,4.121194 14.33878,5.267652 -0.0261,5.683882 z"
       id="path25250"
       sodipodi:nodetypes="ccccccc" />
    <path
       style="fill:#069330;fill-opacity:1;stroke:none;stroke-width:0.610756px;stroke-linecap:butt;stroke-linejoin:miter;stroke-opacity:1"
       d="m 230.88869,77.992319 -9.98954,5.414595 4e-5,-8.781632 z"
       id="path27768"
       sodipodi:nodetypes="cccc" />
  </g>
</svg>
