<?xml version="1.0" encoding="UTF-8"?>
<!-- Created with Inkscape (http://www.inkscape.org/) -->
<svg width="210mm" height="190mm" version="1.1" viewBox="0 0 210 190" xmlns="http://www.w3.org/2000/svg" xmlns:xlink="http://www.w3.org/1999/xlink">
 <defs>
  <linearGradient id="linearGradient16789">
   <stop offset="0"/>
   <stop style="stop-opacity:0" offset="1"/>
  </linearGradient>
  <linearGradient id="linearGradient16791" x1="111.73" x2="71.177" y1="168.52" y2="134.08" gradientTransform="translate(-.0063622 .0059764)" gradientUnits="userSpaceOnUse" xlink:href="#linearGradient16789"/>
  <linearGradient id="linearGradient17936" x1="111.73" x2="71.177" y1="168.52" y2="134.08" gradientTransform="matrix(-1 0 0 1 210.04 1.9437e-5)" gradientUnits="userSpaceOnUse" xlink:href="#linearGradient16789"/>
  <linearGradient id="linearGradient18228" x1="111.73" x2="71.177" y1="168.52" y2="134.08" gradientTransform="rotate(180 105.02 94.323)" gradientUnits="userSpaceOnUse" xlink:href="#linearGradient16789"/>
  <linearGradient id="linearGradient20201" x1="111.73" x2="71.177" y1="168.52" y2="134.08" gradientTransform="matrix(1 0 0 -1 -.51471 188.65)" gradientUnits="userSpaceOnUse" xlink:href="#linearGradient16789"/>
 </defs>
 <g id="current-power-anim-battery-discharge" transform="translate(-15.346)">
  <path d="m61.4 152.3v4l3.4637-2z" style="fill:#7ffefe"/>
  <path d="m66.4 152.3v4l3.4637-2z" style="fill:#7ffefe"/>
  <path d="m71.4 152.3v4l3.4637-2z" style="fill:#7ffefe"/>
 </g>
 <g id="current-power-anim-battery-charge" transform="rotate(90 100.62 145.19)">
  <path d="m61.4 152.3v4l3.4637-2z" style="fill:#7ffefe"/>
  <path d="m66.4 152.3v4l3.4637-2z" style="fill:#7ffefe"/>
  <path d="m71.4 152.3v4l3.4637-2z" style="fill:#7ffefe"/>
 </g>
 <g id="current-power-anim-load" transform="matrix(0 1 1 0 -35.776 44.575)">
  <path d="m61.4 152.3v4l3.4637-2z" style="fill:#7ffefe"/>
  <path d="m66.4 152.3v4l3.4637-2z" style="fill:#7ffefe"/>
  <path d="m71.4 152.3v4l3.4637-2z" style="fill:#7ffefe"/>
 </g>
 <g id="current-power-anim-grid-buy" transform="rotate(180 112.69 94.323)">
  <path d="m61.4 152.3v4l3.4637-2z" style="fill:#7ffefe"/>
  <path d="m66.4 152.3v4l3.4637-2z" style="fill:#7ffefe"/>
  <path d="m71.4 152.3v4l3.4637-2z" style="fill:#7ffefe"/>
 </g>
 <g id="current-power-anim-grid-sell" transform="rotate(-90 54.941 90.717)">
  <path d="m61.4 152.3v4l3.4637-2z" style="fill:#7ffefe"/>
  <path d="m66.4 152.3v4l3.4637-2z" style="fill:#7ffefe"/>
  <path d="m71.4 152.3v4l3.4637-2z" style="fill:#7ffefe"/>
 </g>
 <g id="current-power-anim-pv" transform="matrix(1 0 0 -1 -15.331 188.65)">
  <path d="m61.4 152.3v4l3.4637-2z" style="fill:#7ffefe"/>
  <path d="m66.4 152.3v4l3.4637-2z" style="fill:#7ffefe"/>
  <path d="m71.4 152.3v4l3.4637-2z" style="fill:#7ffefe"/>
 </g>
 <path id="current-power-arrow-path-grid" d="m164.89 34.339h-34.975c-7.1263 0-9.416 4.1037-9.416 4.1037-1.4589 1.5825-1.9771 4.7445-1.9771 8.1595v38.495" style="fill:none"/>
 <path id="current-power-arrow-path-pv" d="m44.595 34.316h34.975c7.1263 0 9.416 4.1037 9.416 4.1037 1.4589 1.5825 1.9771 4.7445 1.9771 8.1595v38.495" style="fill:none"/>
 <path id="current-power-arrow-path-battery" d="m45.048 154.4h34.975c7.1263 0 9.416-4.1037 9.416-4.1037 1.4589-1.5825 1.9771-4.7445 1.9771-8.1595v-38.495" style="fill:none"/>
 <path id="current-power-arrow-path-load" d="m164.9 154.58h-34.975c-7.1263 0-9.416-4.1037-9.416-4.1037-1.4589-1.5825-1.9771-4.7445-1.9771-8.1595v-38.495" style="fill:none"/>
 <g>
  <path x="80.489998" y="70.489998" width="49.019997" height="49.019604" ry="6.9739275" d="m87.464 70.49h35.072c3.8636 0 6.9739 3.1104 6.9739 6.9739v35.072c0 3.8636-3.1104 6.9739-6.9739 6.9739h-35.072c-3.8636 0-6.9739-3.1104-6.9739-6.9739v-35.072c0-3.8636 3.1104-6.9739 6.9739-6.9739z" style="fill:#888;stroke-linecap:round;stroke-linejoin:round;stroke-width:.98;stroke:#888"/>
  <path x="150.49001" y="10.490002" width="49.019997" height="49.019604" ry="6.9739275" d="m157.46 10.49h35.072c3.8636 0 6.9739 3.1104 6.9739 6.9739v35.072c0 3.8636-3.1104 6.9739-6.9739 6.9739h-35.072c-3.8636 0-6.9739-3.1104-6.9739-6.9739v-35.072c0-3.8636 3.1104-6.9739 6.9739-6.9739z" style="fill:#888;stroke-linecap:round;stroke-linejoin:round;stroke-width:.98;stroke:#888"/>
  <path x="150.49001" y="130.49001" width="49.019997" height="49.019604" ry="6.9739275" d="m157.46 130.49h35.072c3.8636 0 6.9739 3.1104 6.9739 6.9739v35.072c0 3.8636-3.1104 6.9739-6.9739 6.9739h-35.072c-3.8636 0-6.9739-3.1104-6.9739-6.9739v-35.072c0-3.8636 3.1104-6.9739 6.9739-6.9739z" style="fill:#888;stroke-linecap:round;stroke-linejoin:round;stroke-width:.98;stroke:#888"/>
  <path x="10.49" y="10.49" width="49.019608" height="49.019608" ry="6.973928" d="m17.464 10.49h35.072c3.8636 0 6.9739 3.1104 6.9739 6.9739v35.072c0 3.8636-3.1104 6.9739-6.9739 6.9739h-35.072c-3.8636 0-6.9739-3.1104-6.9739-6.9739v-35.072c0-3.8636 3.1104-6.9739 6.9739-6.9739z" style="fill:#888;stroke-linecap:round;stroke-linejoin:round;stroke-width:.98;stroke:#888"/>
  <path x="10.490196" y="130.49019" width="49.019608" height="49.019608" ry="6.973928" d="m17.464 130.49h35.072c3.8636 0 6.9739 3.1104 6.9739 6.9739v35.072c0 3.8636-3.1104 6.9739-6.9739 6.9739h-35.072c-3.8636 0-6.9739-3.1104-6.9739-6.9739v-35.072c0-3.8636 3.1104-6.9739 6.9739-6.9739z" style="fill:#888;stroke-linecap:round;stroke-linejoin:round;stroke-width:.98;stroke:#888"/>
  <text id="current-power-label-inverter" x="105.0033" y="79.629173" style="font-family:sans-serif;font-size:6.35px;line-height:1.25;stroke-width:.26458;text-align:center;text-anchor:middle" xml:space="preserve"><tspan x="105.0033" y="79.629173" style="font-size:6.35px;stroke-width:.26458;text-align:center;text-anchor:middle">Inverter</tspan></text>
  <text id="current-power-label-grid" x="174.91551" y="19.629175" style="font-family:sans-serif;font-size:6.35px;line-height:1.25;stroke-width:.26458;text-align:center;text-anchor:middle" xml:space="preserve"><tspan x="174.91551" y="19.629175" style="font-size:6.35px;stroke-width:.26458;text-align:center;text-anchor:middle">Grid</tspan></text>
  <text id="current-power-label-load" x="175.00655" y="139.82451" style="font-family:sans-serif;font-size:6.35px;line-height:1.25;stroke-width:.26458;text-align:center;text-anchor:middle" xml:space="preserve"><tspan x="175.00655" y="139.82451" style="font-size:6.35px;stroke-width:.26458;text-align:center;text-anchor:middle">Load</tspan></text>
  <text id="current-power-label-pv" x="35.0033" y="19.629175" style="font-family:sans-serif;font-size:6.35px;line-height:1.25;stroke-width:.26458;text-align:center;text-anchor:middle" xml:space="preserve"><tspan x="35.0033" y="19.629175" style="font-size:6.35px;stroke-width:.26458;text-align:center;text-anchor:middle">PV</tspan></text>
  <text id="current-power-pv" transform="scale(.99999 1)" x="51.651848" y="31.283495" style="font-family:sans-serif;font-size:8.4667px;line-height:1.25;stroke-width:.26458;text-align:end;text-anchor:end" xml:space="preserve"><tspan x="51.651848" y="31.283495" style="font-size:8.4667px;stroke-width:.26458;text-align:end;text-anchor:end">9999 W</tspan></text>
  <text id="current-power-grid" transform="scale(.99999 1)" x="191.65387" y="31.283495" style="font-family:sans-serif;font-size:8.4667px;line-height:1.25;stroke-width:.26458;text-align:end;text-anchor:end" xml:space="preserve"><tspan x="191.65387" y="31.283495" style="font-size:8.4667px;stroke-width:.26458;text-align:end;text-anchor:end">-9999 W</tspan></text>
  <text id="current-power-battery" transform="scale(.99999 1)" x="51.651848" y="151.28175" style="font-family:sans-serif;font-size:8.4667px;line-height:1.25;stroke-width:.26458;text-align:end;text-anchor:end" xml:space="preserve"><tspan x="51.651848" y="151.28175" style="font-size:8.4667px;stroke-width:.26458;text-align:end;text-anchor:end">-9999 W</tspan></text>
  <text id="current-power-soc" transform="scale(.99999 1)" x="46.818291" y="161.28162" style="font-family:sans-serif;font-size:8.4667px;line-height:1.25;stroke-width:.26458;text-align:end;text-anchor:end" xml:space="preserve"><tspan x="46.818291" y="161.28162" style="font-size:8.4667px;stroke-width:.26458;text-align:end;text-anchor:end">100%</tspan></text>
  <text id="current-power-label-battery" x="35.077782" y="139.62918" style="font-family:sans-serif;font-size:6.35px;line-height:1.25;stroke-width:.26458;text-align:center;text-anchor:middle" xml:space="preserve"><tspan x="35.077782" y="139.62918" style="font-size:6.35px;stroke-width:.26458;text-align:center;text-anchor:middle">Battery</tspan></text>
  <path id="current-power-arrow-battery-discharge" d="m54.304 151.39h1.569l-0.0013-3.1201h1.0001l-1.7832-3.2692-1.7888 3.2692h1.0001l0.0041 3.1201" style="fill:#fe7f7f"/>
  <path id="current-power-arrow-battery-charge" d="m54.304 145h1.5689l-0.0013 3.1198h1l-1.783 3.2689-1.7887-3.2689h1l0.0041-3.1198" style="fill:#95fe7f"/>
  <path id="current-power-arrow-pv" d="m54.304 25h1.569l-0.0013 3.1201h1.0001l-1.7832 3.2692-1.7888-3.2692h1.0001l0.0041-3.1201" style="fill:#fefe7f"/>
  <rect id="current-power-bar-pv" x="12.899" y="22.399" width="2.7014" height="11.802" style="fill:none;stroke-linecap:square;stroke-linejoin:round;stroke-width:.19834;stroke:#000"/>
  <rect id="current-power-bar-grid" x="152.9" y="22.399" width="2.7017" height="11.802" style="fill:none;stroke-linecap:square;stroke-linejoin:round;stroke-width:.19835;stroke:#000"/>
  <rect id="current-power-bar-battery" x="12.899" y="142.4" width="2.7014" height="11.802" style="fill:none;stroke-linecap:square;stroke-linejoin:round;stroke-width:.19834;stroke:#000"/>
  <rect id="current-power-bar-soc" transform="rotate(90)" x="164.1" y="-40.902" width="2.7016" height="11.803" style="fill:none;stroke-linecap:square;stroke-linejoin:round;stroke-width:.19836;stroke:#000"/>
  <path id="current-power-arrow-grid-sell" d="m194.3 31.352h1.569l-1e-3 -3.1201h1.0001l-1.7832-3.2692-1.7888 3.2692h1.0001l4e-3 3.1201" style="fill:#95fe7f"/>
  <path id="current-power-arrow-grid-buy" d="m194.3 24.963h1.5689l-1e-3 3.1198h1l-1.783 3.2689-1.7887-3.2689h1l4e-3 -3.1198" style="fill:#fe7f7f"/>
  <text id="current-power-load" transform="scale(.99999 1)" x="191.65387" y="151.28175" style="font-family:sans-serif;font-size:8.4667px;line-height:1.25;stroke-width:.26458;text-align:end;text-anchor:end" xml:space="preserve"><tspan x="191.65387" y="151.28175" style="font-size:8.4667px;stroke-width:.26458;text-align:end;text-anchor:end">9999 W</tspan></text>
  <rect id="current-power-bar-load" x="152.9" y="142.4" width="2.7017" height="11.802" style="fill:none;stroke-linecap:square;stroke-linejoin:round;stroke-width:.19835;stroke:#000"/>
  <path id="current-power-arrow-load" d="m194.3 145h1.5689l-1e-3 3.1198h1l-1.783 3.2689-1.7887-3.2689h1l4e-3 -3.1198" style="fill:#fe7f7f"/>
  <path d="m60.006 157.3h20.487c7.1263 0 10.55-4.1453 10.55-4.1453 1.4589-1.5825 3.3139-4.703 3.3139-8.118v-25.04m-5.7768 2e-3v25.038c-0.76682 2.6285-2.6287 6.3887-8.0867 6.3887h-20.487" style="fill:none;stroke:url(#linearGradient16791)"/>
  <path d="m150 157.29h-20.457c-7.1263 0-10.55-4.1453-10.55-4.1453-1.4589-1.5825-3.3139-4.703-3.3139-8.118v-25.036m5.7768 5e-3v25.031c0.76682 2.6285 2.6287 6.3887 8.0868 6.3887h20.457" style="fill:none;stroke:url(#linearGradient17936)"/>
  <path d="m150 31.352h-20.458c-7.1263 0-10.55 4.1453-10.55 4.1453-1.4589 1.5825-3.3139 4.703-3.3139 8.118v26.381m5.7768 0.0075v-26.388c0.76682-2.6285 2.6287-6.3887 8.0868-6.3887h20.473" style="fill:none;stroke:url(#linearGradient18228)"/>
  <path d="m60.001 31.352h19.983c7.1263 0 10.55 4.1453 10.55 4.1453 1.4589 1.5825 3.3139 4.703 3.3139 8.118v26.381m-5.7768 0.0075v-26.388c-0.76682-2.6285-2.6287-6.3887-8.0868-6.3887h-19.998" style="fill:none;stroke:url(#linearGradient20201)"/>
 </g>
</svg>
